<svg width="18" height="18" viewBox="0 0 18 18" fill="none" xmlns="http://www.w3.org/2000/svg">
<path d="M7.56 8.145C7.5975 7.8975 7.68 7.68 7.785 7.4925C7.89 7.305 8.04 7.1475 8.2275 7.0275C8.4075 6.915 8.6325 6.8625 8.91 6.855C9.0825 6.8625 9.24 6.8925 9.3825 6.9525C9.5325 7.02 9.6675 7.11 9.7725 7.2225C9.8775 7.335 9.96 7.47 10.0275 7.62C10.095 7.77 10.125 7.935 10.1325 8.1H11.475C11.46 7.7475 11.3925 7.425 11.265 7.1325C11.1375 6.84 10.965 6.585 10.74 6.375C10.515 6.165 10.245 6 9.93 5.88C9.615 5.76 9.27 5.7075 8.8875 5.7075C8.4 5.7075 7.9725 5.79 7.6125 5.9625C7.2525 6.135 6.9525 6.36 6.7125 6.6525C6.4725 6.945 6.2925 7.2825 6.18 7.6725C6.0675 8.0625 6 8.4675 6 8.9025V9.105C6 9.54 6.06 9.945 6.1725 10.335C6.285 10.725 6.465 11.0625 6.705 11.3475C6.945 11.6325 7.245 11.865 7.605 12.03C7.965 12.195 8.3925 12.285 8.88 12.285C9.2325 12.285 9.5625 12.225 9.87 12.1125C10.1775 12 10.4475 11.8425 10.68 11.64C10.9125 11.4375 11.1 11.205 11.235 10.935C11.37 10.665 11.4525 10.38 11.46 10.0725H10.1175C10.11 10.23 10.0725 10.3725 10.005 10.5075C9.9375 10.6425 9.8475 10.755 9.735 10.8525C9.6225 10.95 9.495 11.025 9.345 11.0775C9.2025 11.13 9.0525 11.145 8.895 11.1525C8.625 11.145 8.4 11.0925 8.2275 10.98C8.04 10.86 7.89 10.7025 7.785 10.515C7.68 10.3275 7.5975 10.1025 7.56 9.855C7.5225 9.6075 7.5 9.3525 7.5 9.105V8.9025C7.5 8.64 7.5225 8.3925 7.56 8.145V8.145ZM9 1.5C4.86 1.5 1.5 4.86 1.5 9C1.5 13.14 4.86 16.5 9 16.5C13.14 16.5 16.5 13.14 16.5 9C16.5 4.86 13.14 1.5 9 1.5ZM9 15C5.6925 15 3 12.3075 3 9C3 5.6925 5.6925 3 9 3C12.3075 3 15 5.6925 15 9C15 12.3075 12.3075 15 9 15Z" fill="white" fill-opacity="0.4"/>
</svg>
