<svg width="24" height="16" viewBox="0 0 24 16" fill="none" xmlns="http://www.w3.org/2000/svg">
<path d="M23.8535 7.64643L16.3535 0.146435C16.1582 -0.0488931 15.8418 -0.0488931 15.6465 0.146435C15.4512 0.341763 15.4512 0.658169 15.6465 0.853451L22.293 7.49995H0.500016C0.223641 7.49995 0 7.72359 0 7.99997C0 8.27634 0.223641 8.49998 0.500016 8.49998H22.293L15.6465 15.1464C15.4512 15.3418 15.4512 15.6582 15.6465 15.8534C15.7441 15.9511 15.8721 15.9999 16 15.9999C16.128 15.9999 16.2559 15.9511 16.3536 15.8534L23.8536 8.35345C24.0488 8.15817 24.0488 7.84176 23.8535 7.64643Z" fill="white"/>
</svg>
